<?xml version="1.0" standalone="no"?>
<!DOCTYPE svg PUBLIC "-//W3C//DTD SVG 20010904//EN"
 "http://www.w3.org/TR/2001/REC-SVG-20010904/DTD/svg10.dtd">
<svg version="1.0" xmlns="http://www.w3.org/2000/svg"
 width="256.000000pt" height="256.000000pt" viewBox="0 0 256.000000 256.000000"
 preserveAspectRatio="xMidYMid meet">
<metadata>
Created by potrace 1.11, written by Peter Selinger 2001-2013
</metadata>
<g transform="translate(0.000000,256.000000) scale(0.100000,-0.100000)"
fill="#000000" stroke="none">
<path d="M514 2165 c-392 -675 -505 -877 -498 -899 3 -11 21 -46 39 -76 18
-30 42 -71 52 -90 37 -65 139 -244 252 -438 61 -106 120 -207 130 -225 10 -17
32 -56 50 -85 17 -29 31 -57 31 -62 0 -6 3 -10 8 -10 4 0 18 -23 31 -50 14
-28 27 -51 30 -51 4 -1 293 -2 644 -3 l638 -1 37 65 c20 36 41 73 47 82 23 39
142 246 168 293 16 27 39 67 53 87 13 21 24 40 24 42 0 4 111 198 130 226 6 8
13 22 17 30 4 8 26 47 48 85 69 116 105 183 105 195 0 5 -35 71 -77 146 -43
74 -86 149 -96 167 -98 171 -452 783 -455 787 -2 3 -291 5 -642 5 l-638 0
-128 -220z"/>
</g>
</svg>
